<?xml version="1.0" standalone="no"?>
<!DOCTYPE svg PUBLIC "-//W3C//DTD SVG 20010904//EN"
 "http://www.w3.org/TR/2001/REC-SVG-20010904/DTD/svg10.dtd">
<svg version="1.0" xmlns="http://www.w3.org/2000/svg"
 width="1200.000000pt" height="1200.000000pt" viewBox="0 0 1200.000000 1200.000000"
 preserveAspectRatio="xMidYMid meet">
<metadata>
Created by potrace 1.11, written by Peter Selinger 2001-2013
</metadata>
<g transform="translate(0.000000,1200.000000) scale(0.100000,-0.100000)"
fill="#000000" stroke="none">
<path d="M4526 3248 c-13 -19 -14 -25 -2 -43 26 -40 86 -27 86 19 0 47 -57 63
-84 24z"/>
<path d="M3068 3244 c-25 -13 -28 -20 -28 -69 l0 -55 -35 0 c-34 0 -35 -1 -35
-40 0 -39 1 -40 35 -40 l35 0 0 -114 c0 -141 9 -157 91 -163 62 -5 84 7 92 52
l6 31 -52 -1 -52 0 -3 97 -3 97 58 3 58 3 3 38 3 37 -60 0 -61 0 0 70 c0 76
-4 80 -52 54z"/>
<path d="M5398 3244 l-28 -15 0 -229 0 -230 40 0 40 0 0 73 c0 65 3 76 24 96
l24 22 49 -93 49 -93 42 -3 c23 -2 42 0 42 4 0 4 -27 59 -60 122 l-61 115 53
54 52 53 -49 0 c-47 0 -53 -3 -107 -57 l-58 -57 0 127 c0 137 -1 139 -52 111z"/>
<path d="M6438 3244 c-25 -13 -28 -20 -28 -69 l0 -55 -35 0 c-34 0 -35 -1 -35
-40 0 -39 1 -40 35 -40 l35 0 0 -114 c0 -141 9 -157 91 -163 62 -5 84 7 92 52
l6 31 -52 -1 -52 0 -3 97 -3 97 58 3 58 3 3 38 3 37 -60 0 -61 0 0 70 c0 76
-4 80 -52 54z"/>
<path d="M1030 3010 l0 -240 160 0 160 0 0 40 0 40 -120 0 -120 0 0 65 0 65
75 0 75 0 0 40 0 40 -75 0 -75 0 0 55 0 54 113 3 112 3 3 38 3 37 -155 0 -156
0 0 -240z"/>
<path d="M3890 3210 l0 -40 70 0 70 0 0 -200 0 -200 40 0 40 0 0 200 0 200 70
0 70 0 0 40 0 40 -180 0 -180 0 0 -40z"/>
<path d="M7770 3011 l0 -241 35 0 34 0 3 143 3 142 40 -142 c22 -79 42 -143
45 -143 3 0 23 64 45 143 l40 142 3 -142 3 -143 34 0 35 0 0 240 0 240 -39 0
-39 0 -22 -82 c-53 -201 -58 -214 -65 -195 -4 10 -22 76 -39 145 l-32 127 -42
3 -42 3 0 -240z"/>
<path d="M2085 3116 c-113 -50 -128 -253 -24 -329 54 -39 164 -31 205 14 17
19 17 20 -4 41 -18 19 -25 20 -47 10 -44 -20 -93 -15 -120 13 -14 13 -25 29
-25 35 0 6 44 10 121 10 l122 0 -6 60 c-3 33 -14 75 -24 92 -34 60 -127 85
-198 54z m117 -78 c9 -7 19 -23 23 -35 6 -23 5 -23 -74 -23 -45 0 -81 4 -81 9
0 4 9 20 21 35 16 20 29 26 58 26 20 0 44 -6 53 -12z"/>
<path d="M2583 3110 c-27 -16 -33 -17 -33 -5 0 10 -11 15 -35 15 l-35 0 0
-175 0 -175 40 0 40 0 0 123 c0 141 8 157 73 157 57 0 67 -23 67 -162 l0 -118
40 0 40 0 0 135 c0 151 -9 184 -60 210 -40 21 -99 19 -137 -5z"/>
<path d="M4985 3120 c-31 -13 -66 -50 -81 -86 -22 -53 -18 -152 9 -198 53 -93
191 -103 256 -20 29 37 26 49 -14 61 -31 10 -36 9 -50 -13 -12 -19 -24 -24
-55 -24 -54 0 -80 34 -80 105 0 71 26 105 80 105 28 0 43 -6 54 -21 13 -19 18
-20 50 -9 20 6 36 15 36 19 0 16 -42 62 -70 76 -31 16 -103 19 -135 5z"/>
<path d="M5935 3116 c-113 -50 -128 -253 -24 -329 54 -39 164 -31 205 14 17
19 17 20 -4 41 -18 19 -25 20 -47 10 -44 -20 -93 -15 -120 13 -14 13 -25 29
-25 35 0 6 44 10 121 10 l122 0 -6 60 c-3 33 -14 75 -24 92 -34 60 -127 85
-198 54z m117 -78 c9 -7 19 -23 23 -35 6 -23 5 -23 -74 -23 -45 0 -81 4 -81 9
0 4 9 20 21 35 16 20 29 26 58 26 20 0 44 -6 53 -12z"/>
<path d="M6885 3115 c-42 -22 -55 -43 -55 -85 0 -46 24 -69 113 -109 73 -33
91 -56 62 -77 -26 -19 -54 -17 -100 6 l-39 20 -23 -22 c-22 -21 -22 -22 -5
-41 60 -68 209 -60 247 13 33 64 2 110 -107 159 -76 35 -89 48 -63 68 25 17
59 17 97 -3 29 -15 32 -15 55 9 l25 24 -33 24 c-42 30 -131 37 -174 14z"/>
<path d="M8323 3111 c-46 -21 -48 -26 -33 -65 9 -25 10 -25 44 -11 76 32 146
11 146 -43 0 -19 -3 -20 -26 -12 -79 30 -184 -11 -199 -79 -3 -15 0 -44 7 -66
22 -66 114 -95 183 -59 19 10 31 11 33 5 2 -6 21 -11 43 -11 l39 0 0 118 c0
134 -10 179 -45 212 -36 34 -132 39 -192 11z m135 -197 c30 -8 29 -47 -1 -63
-33 -18 -107 -10 -121 12 -23 38 52 69 122 51z"/>
<path d="M8843 3110 c-27 -16 -33 -17 -33 -5 0 10 -11 15 -35 15 l-35 0 0
-175 0 -175 40 0 40 0 0 123 c0 141 8 157 73 157 57 0 67 -23 67 -162 l0 -118
40 0 40 0 0 135 c0 151 -9 184 -60 210 -40 21 -99 19 -137 -5z"/>
<path d="M9283 3111 c-46 -21 -48 -26 -33 -65 9 -25 10 -25 44 -11 76 32 146
11 146 -43 0 -19 -3 -20 -26 -12 -79 30 -184 -11 -199 -79 -3 -15 0 -44 7 -66
22 -66 114 -95 183 -59 19 10 31 11 33 5 2 -6 21 -11 43 -11 l39 0 0 118 c0
134 -10 179 -45 212 -36 34 -132 39 -192 11z m135 -197 c30 -8 29 -47 -1 -63
-33 -18 -107 -10 -121 12 -23 38 52 69 122 51z"/>
<path d="M9768 3115 c-69 -39 -100 -177 -60 -268 33 -73 104 -105 176 -77 23
9 26 7 26 -14 0 -34 -13 -43 -93 -60 l-28 -7 18 -29 c13 -22 25 -30 45 -30 46
0 96 26 118 62 18 30 20 50 20 231 l0 198 -52 0 c-29 -1 -73 1 -98 4 -30 3
-54 0 -72 -10z m123 -75 c16 -9 19 -22 19 -93 0 -94 -7 -107 -60 -107 -52 0
-73 27 -78 98 -3 47 0 62 18 85 23 29 65 36 101 17z"/>
<path d="M10265 3116 c-113 -50 -128 -253 -24 -329 54 -39 164 -31 205 14 17
19 17 20 -4 41 -18 19 -25 20 -47 10 -44 -20 -93 -15 -120 13 -14 13 -25 29
-25 35 0 6 44 10 121 10 l122 0 -6 60 c-3 33 -14 75 -24 92 -34 60 -127 85
-198 54z m117 -78 c9 -7 19 -23 23 -35 6 -23 5 -23 -74 -23 -45 0 -81 4 -81 9
0 4 9 20 21 35 16 20 29 26 58 26 20 0 44 -6 53 -12z"/>
<path d="M10834 3116 c-18 -8 -37 -22 -43 -33 -9 -16 -10 -15 -11 10 l0 27
-76 0 -75 0 3 -37 c3 -36 5 -38 41 -41 l37 -3 0 -94 0 -94 -37 -3 c-36 -3 -38
-5 -41 -41 l-3 -38 128 3 c140 3 129 -2 124 63 -1 11 -13 15 -46 15 l-45 0 0
75 c0 67 3 79 25 100 15 16 36 25 55 25 28 0 30 -3 30 -35 0 -34 1 -35 40 -35
l40 0 0 65 c0 53 -3 66 -19 75 -27 14 -90 12 -127 -4z"/>
<path d="M1500 3113 c0 -4 29 -82 64 -173 l64 -165 40 -3 c30 -2 41 1 47 15
29 74 125 325 125 329 0 3 -19 4 -42 2 l-42 -3 -40 -117 c-23 -65 -43 -118
-46 -118 -3 0 -23 53 -46 118 l-41 117 -41 3 c-23 2 -42 0 -42 -5z"/>
<path d="M4430 3080 l0 -40 45 0 45 0 0 -95 0 -95 -45 0 -45 0 0 -40 0 -40
136 0 135 0 -3 38 c-3 37 -3 37 -50 40 l-48 3 0 135 0 134 -85 0 -85 0 0 -40z"/>
</g>
</svg>
